<svg preserveAspectRatio="none" width="100%" height="100%" overflow="visible" style="display: block;" viewBox="0 0 370.25 292.891" fill="none" xmlns="http://www.w3.org/2000/svg">
<g id="Group 12">
<g id="Vector">
<path d="M38.0178 273.854C37.4612 273.055 37.1067 272.69 36.3012 273.064L25.9178 277.885C25.1124 278.259 25.1621 278.765 25.414 279.706L24.9569 279.919L22.8143 275.304L23.2714 275.091C23.8281 275.891 24.1927 276.278 24.9981 275.904L35.3815 271.083C36.187 270.709 36.1271 270.181 35.8752 269.24L36.3323 269.027L38.475 273.642L38.0178 273.854Z" fill="var(--fill-0, #2D2E2D)"/>
<path d="M20.3314 259.866C19.7884 259.547 19.0049 259.413 18.6422 259.539C18.3928 259.625 18.3041 259.809 18.3829 260.035C18.6115 260.693 18.2862 261.365 17.6062 261.601C16.8581 261.862 16.1771 261.438 15.9406 260.758C15.6175 259.828 16.269 259.144 17.153 258.837C18.2185 258.466 19.5726 258.707 20.5463 259.461L20.3314 259.866Z" fill="var(--fill-0, #2D2E2D)"/>
<path d="M24.6308 242.103C24.2777 241.195 24.0094 240.71 23.1387 240.884L11.9131 243.13C11.0424 243.304 10.9812 243.855 11.0048 244.829L10.5106 244.928L9.77612 241.257L19.4669 233.909L7.74209 231.09L7.02641 227.513L7.52061 227.414C7.87368 228.323 8.13259 228.76 9.00333 228.586L20.2289 226.34C21.0996 226.166 21.1702 225.662 21.1466 224.688L21.6408 224.589L22.6343 229.555L22.1401 229.654C21.787 228.745 21.5281 228.308 20.6573 228.482L9.47887 230.718L22.0227 233.716L22.1639 234.422L11.7578 242.353L22.9833 240.107C23.854 239.933 23.9152 239.382 23.8963 238.432L24.3905 238.333L25.125 242.004L24.6308 242.103Z" fill="var(--fill-0, #2D2E2D)"/>
<path d="M18.9983 189.469C18.8792 191.458 18.1971 192.811 17.4321 193.943C15.715 194.514 13.8492 194.354 13.8922 193.635C13.9037 193.444 13.9334 193.349 14.2026 193.269C16.6442 192.646 18.2175 190.865 18.3312 188.564C18.3879 186.812 17.648 185.517 15.8272 185.408C13.6471 185.278 13.0997 187.193 12.2548 189.258C11.1853 191.863 9.77115 193.797 7.30356 193.65C4.93181 193.508 3.32592 191.416 3.52812 188.038C3.6285 186.361 4.12181 184.948 4.88684 183.816C6.60399 183.245 8.46978 183.405 8.42676 184.124C8.41528 184.316 8.36163 184.408 8.11633 184.49C5.64933 185.136 4.29744 186.834 4.18272 188.751C4.0637 190.739 5.3848 191.563 6.67848 191.641C8.54714 191.753 9.33511 190.237 10.0981 188.335C10.9995 186.129 12.1682 183.074 15.2108 183.256C18.2054 183.435 19.1746 186.522 18.9983 189.469Z" fill="var(--fill-0, #2D2E2D)"/>
<path d="M21.6101 163.492C20.7159 167.694 16.8959 170.194 12.5766 169.275C8.16345 168.335 5.56792 164.274 6.48709 159.955C7.38128 155.753 11.2012 153.253 15.497 154.168C19.9337 155.112 22.5292 159.173 21.6101 163.492ZM12.2176 166.695C16.7247 167.655 20.3159 165.769 20.9653 162.717C21.4448 160.464 20.3397 157.701 15.8326 156.742C11.349 155.788 7.78127 157.679 7.13186 160.73C6.65229 162.984 7.75749 165.746 12.2176 166.695Z" fill="var(--fill-0, #2D2E2D)"/>
<path d="M35.2266 120.465C33.2854 124.271 29.2028 126.095 24.9055 123.903C20.4159 121.613 19.573 116.98 21.5032 113.196C23.1172 110.032 25.8296 109.098 27.3475 109.873C28.0958 110.254 28.4335 110.965 28.0409 111.735C27.7138 112.376 27.079 112.564 26.3726 112.312C25.0454 111.85 23.0053 111.941 21.8057 114.293C20.4534 116.944 21.4938 119.711 24.7648 121.38C28.9338 123.506 33.5064 122.147 35.1749 118.876C35.7747 117.701 35.7502 116.745 34.5744 116.145L33.0778 115.382C31.5171 114.586 30.9801 114.635 30.0121 116.216L29.5845 115.998L32.1368 110.941L32.5857 111.17C32.1356 112.423 32.4332 112.79 33.9939 113.586L35.5545 114.382C36.089 114.655 36.8159 115.026 37.4045 115.245C37.6292 115.333 37.6061 115.536 37.4011 115.674C37.0987 115.897 36.8501 116.121 36.5992 116.612C36.054 117.681 36.0554 118.841 35.2266 120.465Z" fill="var(--fill-0, #2D2E2D)"/>
<path d="M43.8689 102.279C44.2922 101.401 44.4356 100.914 43.7142 100.396L34.414 93.7202C33.6926 93.2024 33.2762 93.4943 32.58 94.1763L32.1705 93.8824L35.1374 89.749L35.5469 90.0428C35.1235 90.9207 34.9661 91.4281 35.6875 91.9459L44.9877 98.6215C45.5922 99.0553 46.153 99.0147 46.7213 98.1819L48.5806 95.2623C49.3898 94.0115 49.2692 93.0682 48.9112 92.2499L48.5642 91.4986L48.8721 91.0697L49.8205 92.3413C50.1125 92.7577 50.3935 93.1071 50.8699 93.3899L44.2783 102.573L43.8689 102.279Z" fill="var(--fill-0, #2D2E2D)"/>
<path d="M58.1768 82.1696C58.8163 81.2155 58.8805 80.5703 58.4327 79.4188L53.992 68.5149C53.6305 67.6175 53.3566 67.2118 53.0323 66.8912L53.8917 65.8171L66.274 70.6341C67.992 71.3201 68.5526 71.4357 69.5327 70.6834L69.8911 71.0378L66.0945 74.8778L65.7361 74.5235C66.6285 73.2795 66.3213 72.9758 65.3519 72.625L63.7191 71.9894C63.0729 71.7555 62.6495 71.9106 62.1602 72.4056L58.8867 75.7166C58.448 76.1603 58.1961 76.62 58.4369 77.1956L59.074 78.8042C59.5213 79.8539 60.2846 79.7986 61.3828 78.9268L61.7412 79.2812L58.5352 82.5239L58.1768 82.1696ZM57.5594 75.0793C57.7314 75.4856 58.0202 75.5349 58.2564 75.2959L61.6986 71.8142C61.9011 71.6094 61.916 71.2529 61.5419 71.1193L55.4357 68.7273C55.0275 68.5599 54.9431 68.6453 55.1153 69.0855L57.5594 75.0793Z" fill="var(--fill-0, #2D2E2D)"/>
<path d="M78.7268 61.5923C79.4054 60.8927 79.6954 60.475 79.1741 59.756L72.44 50.4685C71.9329 49.769 71.4457 49.9147 70.5698 50.3422L70.274 49.9342L74.8206 46.6376C78.1626 44.2145 82.3688 43.2695 85.6654 47.8161C88.7789 52.1102 87.1551 56.0445 83.7743 58.4958C83.0165 59.0452 81.7414 59.8215 80.9253 60.4132C80.3619 60.8218 79.7683 61.3115 79.0226 62.0003L78.7268 61.5923ZM80.9422 58.474C81.4635 59.193 82.4948 58.6527 83.272 58.0892C86.6917 55.6097 85.9891 52.1467 83.8195 49.1545C81.6641 46.1817 78.7178 44.6123 75.2204 47.1481L74.793 47.4581C74.0158 48.0216 73.701 48.487 74.1941 49.167L80.9422 58.474Z" fill="var(--fill-0, #2D2E2D)"/>
<path d="M120.003 35.865C121.283 35.1837 121.669 34.8523 121.345 34.0254L119.858 30.226C119.648 29.6896 119.365 29.4914 118.89 29.1358L114.152 25.6553C112.667 24.5612 111.951 24.3776 110.961 24.4817L110.777 24.0123L115.739 22.0705L115.922 22.5398C114.834 23.2493 114.924 23.6778 115.895 24.3803L120.603 27.8472C120.736 27.9239 120.87 27.8714 120.915 27.7247L121.898 22.1343C122.168 20.5853 121.352 20.5436 120.392 20.7905L120.209 20.3211L124.321 18.7117L124.504 19.181C123.498 19.7039 123.11 20.2937 122.781 22.0205L121.671 27.9443C121.583 28.4428 121.682 28.8937 121.892 29.43L123.379 33.2294C123.703 34.0563 124.211 34.0378 125.613 33.6695L125.797 34.1388L120.187 36.3343L120.003 35.865Z" fill="var(--fill-0, #2D2E2D)"/>
<path d="M148.9 26.6907C144.701 27.5972 140.855 25.1373 139.923 20.8207C138.971 16.4103 141.612 12.3783 145.928 11.4465C150.127 10.54 153.973 12.9999 154.9 17.293C155.857 21.7268 153.216 25.7588 148.9 26.6907ZM142.129 19.4362C143.101 23.9404 146.293 26.4432 149.343 25.7848C151.595 25.2986 153.662 23.1583 152.689 18.6541C151.722 14.1733 148.535 11.6939 145.485 12.3523C143.233 12.8385 141.166 14.9788 142.129 19.4362Z" fill="var(--fill-0, #2D2E2D)"/>
<path d="M175.802 22.1614C172.471 22.3443 169.846 20.5174 169.61 16.2039L169.219 9.08667C169.17 8.2 168.682 8.05858 167.714 7.94347L167.686 7.44023L172.766 7.16122L172.794 7.66446C171.845 7.88485 171.351 8.08024 171.399 8.9669L171.765 15.6289C171.979 19.511 173.66 21.2454 176.224 21.1046C178.453 20.9822 180.513 19.547 180.28 15.3054L179.907 8.49969C179.858 7.61302 179.274 7.47686 178.306 7.36176L178.278 6.85852L182.16 6.64531L182.188 7.14855C181.263 7.36763 180.721 7.56564 180.769 8.45231L181.152 15.4258C181.38 19.5716 179.42 21.9626 175.802 22.1614Z" fill="var(--fill-0, #2D2E2D)"/>
<path d="M212.329 21.6483C213.477 21.6676 214.054 21.3713 214.778 20.3703L221.526 10.7229C222.084 9.93222 222.276 9.48201 222.369 9.03566L223.738 9.17457L226.412 22.1889C226.768 24.0042 226.975 24.5378 228.139 24.9527L228.036 25.446L222.75 24.3413L222.853 23.8479C224.382 23.9224 224.471 23.4995 224.239 22.4949L223.887 20.7785C223.733 20.1088 223.373 19.8374 222.691 19.695L218.134 18.7425C217.523 18.6148 217 18.6526 216.648 19.1674L215.642 20.5755C215.003 21.5208 215.464 22.1319 216.792 22.5812L216.689 23.0745L212.226 22.1416L212.329 21.6483ZM217.949 17.2817C217.701 17.6467 217.816 17.916 218.145 17.9847L222.938 18.9864C223.22 19.0453 223.527 18.8644 223.436 18.4776L222.132 12.0508C222.051 11.617 221.933 11.5925 221.657 11.9761L217.949 17.2817Z" fill="var(--fill-0, #2D2E2D)"/>
<path d="M240.84 27.8111C241.797 27.9978 242.305 28.0127 242.623 27.1835L246.72 16.4937C247.038 15.6645 246.649 15.3358 245.813 14.8354L245.994 14.3648L252.089 16.7009C255.585 18.0408 256.846 20.1173 255.935 22.4928C255.239 24.3081 253.72 24.9854 251.43 24.7245C251.256 24.7092 251.213 24.8212 251.353 24.9262C252.507 25.8053 252.82 27.1334 252.72 28.5344C252.555 31.2468 252.606 32.3202 253.502 32.6638L253.322 33.1344L252.717 32.9025C250.543 32.0694 250.381 31.0822 250.541 27.9822C250.654 25.6093 249.962 24.5987 248.102 23.8858C246.78 23.3791 246.328 23.6174 246.002 24.469L244.662 27.9651C244.344 28.7943 244.755 29.1315 245.815 29.7178L245.635 30.1884L240.66 28.2817L240.84 27.8111ZM247.187 21.3764C246.861 22.228 247.037 22.7068 247.956 23.0589L249.57 23.6773C251.833 24.5448 253.138 23.5542 253.834 21.7389C254.538 19.9012 254.269 18.256 251.916 17.3542L250.616 16.856C249.563 16.4524 249.06 16.4909 248.751 17.2976L247.187 21.3764Z" fill="var(--fill-0, #2D2E2D)"/>
<path d="M264.965 37.1414C265.884 37.4653 266.385 37.5539 266.82 36.7798L272.428 26.7996C272.863 26.0255 272.527 25.6439 271.772 25.0271L272.019 24.5877L281.518 29.9256C281.707 30.0314 281.776 30.1529 281.691 30.353C281.448 30.9323 281.179 31.607 280.828 32.8687L280.43 32.6454C280.645 31.0869 280.248 29.9823 278.825 29.1828L276.147 27.6779C275.31 27.2076 274.732 27.1582 274.297 27.9323L272.286 31.5101C271.84 32.3052 272.218 32.7103 273.055 33.1806L275.126 34.3446C276.423 35.0735 276.98 34.6706 277.688 33.8022L278.023 33.9904L275.989 37.61L275.654 37.4219C276.016 36.3863 276.094 35.6594 274.797 34.9304L272.725 33.7664C271.888 33.2961 271.334 33.2049 270.899 33.979L268.771 37.766C268.336 38.5402 268.646 39.0172 270.185 39.8546L272.603 41.1858C274.142 42.0231 274.875 41.747 275.539 41.3492L276.477 40.8573L276.895 41.0924C276.219 41.5111 275.734 41.9819 275.009 42.9785C274.883 43.155 274.698 43.1891 274.51 43.0833L264.718 37.5808L264.965 37.1414Z" fill="var(--fill-0, #2D2E2D)"/>
<path d="M300.462 59.4295C301.271 59.9728 301.734 60.1838 302.349 59.543L310.274 51.2815C310.888 50.6407 310.658 50.1871 310.082 49.4013L310.431 49.0376L314.103 52.5598L313.754 52.9235C312.945 52.3802 312.465 52.1525 311.85 52.7934L308.66 56.1188C308.245 56.5518 308.286 56.9243 308.702 57.3231L313.084 61.5264C313.482 61.9085 313.856 61.9347 314.272 61.5017L317.461 58.1763C318.076 57.5355 317.846 57.082 317.27 56.2962L317.618 55.9325L321.273 59.438L320.924 59.8017C320.115 59.2584 319.652 59.0474 319.038 59.6882L311.113 67.9497C310.498 68.5905 310.728 69.0441 311.305 69.8299L310.956 70.1936L307.301 66.688L307.65 66.3243C308.459 66.8676 308.922 67.0787 309.537 66.4378L312.677 63.1644C313.075 62.7487 313.034 62.3762 312.653 62.0107L308.236 57.7741C307.838 57.392 307.464 57.3658 307.065 57.7815L303.925 61.0549C303.31 61.6957 303.558 62.1659 304.134 62.9517L303.785 63.3154L300.113 59.7932L300.462 59.4295Z" fill="var(--fill-0, #2D2E2D)"/>
<path d="M320.619 79.0084C321.334 79.6708 321.759 79.951 322.465 79.4134L331.576 72.482C332.283 71.9444 332.126 71.4606 331.679 70.5949L332.08 70.2897L338.677 78.9616C338.808 79.1335 338.823 79.2726 338.666 79.4224C338.213 79.8576 337.698 80.3699 336.874 81.3884L336.598 81.0254C337.415 79.6806 337.488 78.5089 336.5 77.21L334.64 74.7651C334.059 74.0011 333.548 73.7262 332.841 74.2638L329.575 76.7486C328.849 77.3008 329.035 77.8228 329.617 78.5868L331.055 80.4778C331.956 81.6621 332.627 81.5135 333.622 80.9978L333.855 81.3034L330.55 83.8173L330.318 83.5117C331.061 82.705 331.421 82.0689 330.52 80.8847L329.082 78.9937C328.501 78.2296 328.028 77.9257 327.321 78.4633L323.864 81.0935C323.157 81.6311 323.252 82.1921 324.332 83.5719L326.022 85.754C327.102 87.1338 327.885 87.1717 328.652 87.0704L329.708 86.9912L329.998 87.3732C329.212 87.489 328.58 87.7285 327.519 88.355C327.332 88.4667 327.15 88.4247 327.019 88.2528L320.218 79.3136L320.619 79.0084Z" fill="var(--fill-0, #2D2E2D)"/>
<path d="M335.696 98.8207C336.307 99.5801 336.686 99.9193 337.463 99.4903L347.487 93.9604C348.264 93.5314 348.18 93.03 347.863 92.1083L348.304 91.8648L351.458 97.5807C353.266 100.859 352.891 103.259 350.663 104.488C348.961 105.427 347.363 104.965 345.781 103.289C345.658 103.165 345.553 103.223 345.592 103.393C345.907 104.809 345.29 106.027 344.31 107.033C342.435 109 341.782 109.853 342.246 110.694L341.805 110.937L341.492 110.37C340.367 108.331 340.88 107.473 343.001 105.206C344.617 103.465 344.74 102.246 343.777 100.502C343.093 99.2623 342.595 99.1536 341.796 99.5941L338.518 101.403C337.741 101.832 337.837 102.354 338.269 103.486L337.828 103.729L335.254 99.0642L335.696 98.8207ZM344.696 97.9942C343.898 98.4348 343.724 98.9145 344.199 99.776L345.034 101.289C346.205 103.412 347.841 103.496 349.543 102.557C351.266 101.606 352.121 100.175 350.904 97.9683L350.232 96.7495C349.687 95.7618 349.277 95.4669 348.521 95.8843L344.696 97.9942Z" fill="var(--fill-0, #2D2E2D)"/>
<path d="M348.515 122.304C349.005 123.147 349.329 123.539 350.162 123.231L360.901 119.264C361.734 118.957 361.725 118.448 361.55 117.489L362.023 117.315L365.798 127.536C365.873 127.738 365.847 127.876 365.653 127.973C365.092 128.257 364.45 128.597 363.365 129.33L363.207 128.902C364.381 127.855 364.794 126.756 364.228 125.225L363.164 122.343C362.831 121.442 362.423 121.03 361.59 121.338L357.74 122.76C356.885 123.076 356.91 123.63 357.243 124.53L358.066 126.759C358.582 128.155 359.267 128.209 360.369 128.006L360.502 128.366L356.607 129.805L356.474 129.445C357.421 128.891 357.951 128.388 357.436 126.992L356.612 124.763C356.28 123.862 355.917 123.434 355.084 123.741L351.009 125.246C350.176 125.554 350.103 126.118 350.732 127.754L351.711 130.334C352.341 131.969 353.078 132.234 353.842 132.362L354.874 132.594L355.041 133.045C354.255 132.926 353.58 132.97 352.382 133.259C352.171 133.311 352.009 133.218 351.934 133.015L348.042 122.479L348.515 122.304Z" fill="var(--fill-0, #2D2E2D)"/>
</g>
<path id="Subtract" fill-rule="evenodd" clip-rule="evenodd" d="M330.856 152.54C328.737 145.048 325.993 137.628 322.598 130.344C288.416 56.9907 201.282 25.255 127.979 59.4601C54.675 93.6653 22.9607 180.859 57.1427 254.212C60.537 261.496 64.4535 268.369 68.8267 274.809L67.6153 275.374C63.2514 268.928 59.3406 262.052 55.947 254.77C21.4571 180.756 53.457 92.7769 127.421 58.2635C201.385 23.7502 289.304 55.7719 323.794 129.786C327.188 137.068 329.937 144.486 332.067 151.975L330.856 152.54Z" fill="var(--fill-0, #AC8E76)"/>
</g>
</svg>
