<svg preserveAspectRatio="none" width="100%" height="100%" overflow="visible" style="display: block;" viewBox="0 0 16 16" fill="none" xmlns="http://www.w3.org/2000/svg">
<g id="instagram" clip-path="url(#clip0_3742_545)">
<path id="Vector" d="M15.9843 4.70421C15.9468 3.85407 15.8094 3.2696 15.6124 2.76315C15.4093 2.22557 15.0967 1.74428 14.6872 1.34418C14.2871 0.937846 13.8026 0.62211 13.2713 0.42212C12.7619 0.225182 12.1805 0.0877043 11.3303 0.0502214C10.4738 0.009564 10.2019 0.00016276 8.02964 0.00016276C5.85734 0.00016276 5.58544 0.009564 4.73212 0.0470469C3.88198 0.0845298 3.29751 0.22213 2.79119 0.418946C2.25349 0.62211 1.77219 0.934672 1.37209 1.34418C0.965759 1.74428 0.650146 2.22875 0.450034 2.7601C0.253096 3.2696 0.115618 3.85089 0.0781348 4.70103C0.0374774 5.55752 0.0280762 5.82943 0.0280762 8.00173C0.0280762 10.174 0.0374774 10.4459 0.0749603 11.2992C0.112443 12.1494 0.250043 12.7339 0.446981 13.2403C0.650146 13.7779 0.965759 14.2592 1.37209 14.6593C1.77219 15.0656 2.25666 15.3813 2.78801 15.5813C3.29751 15.7783 3.8788 15.9157 4.72907 15.9532C5.58226 15.9908 5.85429 16.0001 8.02659 16.0001C10.1989 16.0001 10.4708 15.9908 11.3241 15.9532C12.1742 15.9157 12.7587 15.7783 13.265 15.5813C14.3403 15.1656 15.1905 14.3155 15.6062 13.2403C15.803 12.7308 15.9406 12.1494 15.9781 11.2992C16.0156 10.4459 16.025 10.174 16.025 8.00173C16.025 5.82943 16.0218 5.55752 15.9843 4.70421ZM14.5435 11.2367C14.5091 12.0181 14.3778 12.4401 14.2684 12.7214C13.9996 13.4184 13.4463 13.9716 12.7493 14.2405C12.468 14.3499 12.043 14.4811 11.2646 14.5154C10.4207 14.5531 10.1676 14.5623 8.03281 14.5623C5.898 14.5623 5.64172 14.5531 4.80086 14.5154C4.01946 14.4811 3.5975 14.3499 3.31619 14.2405C2.96932 14.1123 2.65359 13.9091 2.39731 13.6435C2.13164 13.384 1.92847 13.0714 1.80027 12.7246C1.69088 12.4433 1.55963 12.0181 1.52532 11.2399C1.48771 10.396 1.47843 10.1428 1.47843 8.00795C1.47843 5.87314 1.48771 5.61686 1.52532 4.77612C1.55963 3.99472 1.69088 3.57276 1.80027 3.29146C1.92847 2.94446 2.13164 2.62885 2.40049 2.37245C2.65982 2.10678 2.97238 1.90361 3.31937 1.77553C3.60067 1.66614 4.02581 1.53489 4.80403 1.50046C5.64795 1.46297 5.90117 1.45357 8.03587 1.45357C10.1739 1.45357 10.427 1.46297 11.2678 1.50046C12.0492 1.53489 12.4712 1.66614 12.7525 1.77553C13.0994 1.90361 13.4151 2.10678 13.6714 2.37245C13.937 2.6319 14.1402 2.94446 14.2684 3.29146C14.3778 3.57276 14.5091 3.99777 14.5435 4.77612C14.581 5.62003 14.5904 5.87314 14.5904 8.00795C14.5904 10.1428 14.581 10.3928 14.5435 11.2367Z" fill="var(--fill-0, white)"/>
<path id="Vector_2" d="M8.02969 3.89144C5.76057 3.89144 3.91951 5.73237 3.91951 8.00162C3.91951 10.2709 5.76057 12.1118 8.02969 12.1118C10.2989 12.1118 12.1399 10.2709 12.1399 8.00162C12.1399 5.73237 10.2989 3.89144 8.02969 3.89144ZM8.02969 10.6678C6.5576 10.6678 5.36352 9.47383 5.36352 8.00162C5.36352 6.52941 6.5576 5.33545 8.02969 5.33545C9.5019 5.33545 10.6959 6.52941 10.6959 8.00162C10.6959 9.47383 9.5019 10.6678 8.02969 10.6678Z" fill="var(--fill-0, white)"/>
<path id="Vector_3" d="M13.2621 3.72891C13.2621 4.2588 12.8324 4.68844 12.3024 4.68844C11.7725 4.68844 11.3429 4.2588 11.3429 3.72891C11.3429 3.1989 11.7725 2.76937 12.3024 2.76937C12.8324 2.76937 13.2621 3.1989 13.2621 3.72891Z" fill="var(--fill-0, white)"/>
</g>
<defs>
<clipPath id="clip0_3742_545">
<rect width="16" height="16" fill="white"/>
</clipPath>
</defs>
</svg>
