<svg preserveAspectRatio="none" width="100%" height="100%" overflow="visible" style="display: block;" viewBox="0 0 16 16" fill="none" xmlns="http://www.w3.org/2000/svg">
<g id="facebook" clip-path="url(#clip0_3742_476)">
<path id="Vector" fill-rule="evenodd" clip-rule="evenodd" d="M7.99999 0C9.49 0.017003 10.8361 0.383205 12.0382 1.09861C13.2261 1.79972 14.2141 2.79385 14.908 3.98592C15.6191 5.19531 15.9831 6.54956 16 8.04864C15.9578 10.0998 15.3108 11.8516 14.0592 13.3042C12.8075 14.7568 11.2045 15.6555 9.54498 16V10.2493H11.1139L11.4687 7.98938H9.09301V6.50922C9.07982 6.20237 9.17686 5.90093 9.36658 5.6594C9.55657 5.41721 9.89114 5.28992 10.3703 5.27752H11.8049V3.29791C11.7843 3.29129 11.589 3.2651 11.2189 3.21934C10.7992 3.17024 10.3772 3.14401 9.95467 3.14078C8.99835 3.14519 8.24203 3.41495 7.68571 3.95005C7.12937 4.48501 6.84518 5.25898 6.83313 6.27196V7.98938H5.02522V10.2493H6.83313V16C4.79552 15.6555 3.19245 14.7568 1.9408 13.3042C0.689143 11.8516 0.0422341 10.0998 0 8.04864C0.0168975 6.54949 0.380886 5.19525 1.09196 3.98592C1.78584 2.79385 2.77393 1.79973 3.96175 1.09861C5.16387 0.383343 6.50995 0.0171407 7.99999 0Z" fill="var(--fill-0, white)"/>
</g>
<defs>
<clipPath id="clip0_3742_476">
<rect width="16" height="16" fill="white"/>
</clipPath>
</defs>
</svg>
