<?xml version="1.0" standalone="no"?>
<!DOCTYPE svg PUBLIC "-//W3C//DTD SVG 20010904//EN"
 "http://www.w3.org/TR/2001/REC-SVG-20010904/DTD/svg10.dtd">
<svg version="1.0" xmlns="http://www.w3.org/2000/svg"
 width="700.000000pt" height="700.000000pt" viewBox="0 0 700.000000 700.000000"
 preserveAspectRatio="xMidYMid meet">
<metadata>
Created by potrace 1.14, written by Peter Selinger 2001-2017
</metadata>
<g transform="translate(0.000000,700.000000) scale(0.100000,-0.100000)"
fill="#000000" stroke="none">
<path d="M3548 6975 c-2 -2 -69 -5 -150 -6 -81 -1 -174 -6 -205 -10 -32 -4
-87 -10 -123 -14 -117 -11 -343 -56 -505 -100 -74 -19 -326 -105 -340 -114 -5
-4 -32 -16 -60 -26 -245 -89 -643 -330 -890 -539 -150 -127 -343 -318 -425
-422 -14 -17 -51 -63 -82 -102 -67 -83 -228 -316 -228 -330 0 -6 -4 -12 -8
-14 -20 -8 -169 -297 -234 -453 -86 -205 -185 -533 -212 -705 -20 -120 -35
-234 -41 -290 -3 -36 -8 -87 -10 -115 -6 -60 -6 -416 0 -465 2 -19 6 -69 10
-110 7 -88 10 -108 35 -260 67 -399 215 -800 432 -1170 45 -77 193 -298 207
-310 3 -3 26 -32 51 -65 145 -196 425 -468 660 -643 501 -372 1134 -616 1730
-668 138 -12 180 -13 335 -14 210 -1 422 15 585 46 14 2 41 7 60 10 161 25
465 115 665 196 171 69 485 228 493 250 2 4 8 8 13 8 13 0 227 146 329 225
438 339 812 821 1034 1330 26 61 54 124 62 142 40 90 150 463 168 570 39 227
42 250 53 358 10 92 10 580 0 670 -53 499 -193 944 -432 1369 -100 179 -266
417 -375 540 -246 278 -436 448 -700 628 -338 231 -679 385 -1076 488 -139 36
-183 46 -239 55 -82 13 -102 16 -120 20 -11 2 -47 7 -80 10 -33 4 -73 8 -90
10 -16 2 -84 7 -150 10 -66 4 -125 8 -132 10 -6 2 -13 2 -15 0z"/>
</g>
</svg>
